PathFileType	4	(X/Y/Z)	c:/Users/goper/Files/vsCode/490R/osim_files/C03/C03_SSW_05.trc
DataRate	CameraRate	NumFrames	NumMarkers	Units                	OrigDataRate	OrigDataStartFrame	OrigNumFrames
250.00	250.00	8	36	mm	250.0	1023	2726
                Frame#	Time	LPSIS			LASIS			LTH1			LTH2			LTH3			LTH4			LLFE			LMFE			LSH1			LSH2			LSH3			LSH4			LLMAL			LMMAL			LCAL			LMTP5			LTOE			LMTP1			RPSIS			RASIS			RTH1			RTH2			RTH3			RTH4			RLFE			RMFE			RSH1			RSH2			RSH3			RSH4			RLMAL			RMMAL			RCAL			RMTP1			RTOE			RMTP5		
		X1	Y1	Z1	X2	Y2	Z2	X3	Y3	Z3	X4	Y4	Z4	X5	Y5	Z5	X6	Y6	Z6	X7	Y7	Z7	X8	Y8	Z8	X9	Y9	Z9	X10	Y10	Z10	X11	Y11	Z11	X12	Y12	Z12	X13	Y13	Z13	X14	Y14	Z14	X15	Y15	Z15	X16	Y16	Z16	X17	Y17	Z17	X18	Y18	Z18	X19	Y19	Z19	X20	Y20	Z20	X21	Y21	Z21	X22	Y22	Z22	X23	Y23	Z23	X24	Y24	Z24	X25	Y25	Z25	X26	Y26	Z26	X27	Y27	Z27	X28	Y28	Z28	X29	Y29	Z29	X30	Y30	Z30	X31	Y31	Z31	X32	Y32	Z32	X33	Y33	Z33	X34	Y34	Z34	X35	Y35	Z35	X36	Y36	Z36

1023	4.08800	1940.81836	1044.01941	269.90134	0.00000	0.00000	0.00000	0.00000	0.00000	0.00000	1766.91382	571.47565	342.66724	0.00000	0.00000	0.00000	1708.29346	592.04987	357.95285	1739.28418	505.84201	344.10388	0.00000	0.00000	0.00000	1907.02490	426.32956	332.51639	0.00000	0.00000	0.00000	1865.34485	386.24261	352.66302	0.00000	0.00000	0.00000	2026.97974	249.12083	321.17697	0.00000	0.00000	0.00000	2095.26587	272.38306	276.19229	1994.20825	111.18331	359.97824	0.00000	0.00000	0.00000	0.00000	0.00000	0.00000	1930.65881	1043.56531	156.77016	0.00000	0.00000	0.00000	1890.38867	618.87219	89.64852	1891.42627	557.15289	103.55499	0.00000	0.00000	0.00000	0.00000	0.00000	0.00000	0.00000	0.00000	0.00000	1850.67822	507.80688	216.60944	0.00000	0.00000	0.00000	0.00000	0.00000	0.00000	1886.33313	244.02869	104.17015	1888.02307	286.19644	98.32590	0.00000	0.00000	0.00000	1831.49243	109.88679	217.10329	0.00000	0.00000	0.00000	1708.14172	61.37350	231.89087	0.00000	0.00000	0.00000	1769.77454	31.91304	127.90482
1024	4.09200	1935.75293	1044.49622	270.16153	0.00000	0.00000	0.00000	0.00000	0.00000	0.00000	1758.04480	572.71234	342.47757	0.00000	0.00000	0.00000	0.00000	0.00000	0.00000	1729.95459	507.67120	343.59323	0.00000	0.00000	0.00000	1896.50562	425.71591	332.24057	0.00000	0.00000	0.00000	1854.33118	386.38123	352.37106	0.00000	0.00000	0.00000	2013.80774	246.75720	321.22180	0.00000	0.00000	0.00000	2082.80713	268.34000	276.26389	1978.09290	110.01565	360.54144	0.00000	0.00000	0.00000	0.00000	0.00000	0.00000	1926.03296	1043.79175	157.02017	0.00000	0.00000	0.00000	1887.30396	619.14520	89.86425	1888.66064	557.49158	103.82095	0.00000	0.00000	0.00000	0.00000	0.00000	0.00000	0.00000	0.00000	0.00000	1848.03601	508.01923	216.87036	0.00000	0.00000	0.00000	0.00000	0.00000	0.00000	1885.09595	244.25067	104.39500	1886.44922	286.39182	98.55602	0.00000	0.00000	0.00000	1831.21082	109.83891	217.29543	0.00000	0.00000	0.00000	1708.08325	61.25307	231.94078	0.00000	0.00000	0.00000	1769.39978	31.95173	128.00436
1025	4.09600	1930.64062	1044.92334	270.48102	0.00000	0.00000	0.00000	0.00000	0.00000	0.00000	1749.33215	573.96588	342.35596	0.00000	0.00000	0.00000	0.00000	0.00000	0.00000	1720.48901	509.31006	343.06030	0.00000	0.00000	0.00000	1885.83191	424.90039	331.93964	0.00000	0.00000	0.00000	1843.10974	386.24554	352.05417	0.00000	0.00000	0.00000	2000.53418	244.27399	321.26944	1967.27441	229.82956	249.15608	2070.16968	264.11334	276.33798	1963.49158	107.82038	361.43872	1923.04419	92.92754	314.22592	0.00000	0.00000	0.00000	1921.32788	1043.96143	157.32002	0.00000	0.00000	0.00000	1884.25159	619.49512	90.16624	1885.96155	557.96423	104.17147	0.00000	0.00000	0.00000	0.00000	0.00000	0.00000	0.00000	0.00000	0.00000	1845.35486	508.15155	217.09537	0.00000	0.00000	0.00000	0.00000	0.00000	0.00000	1883.86487	244.48729	104.68636	1884.85352	286.57178	98.85950	0.00000	0.00000	0.00000	1831.01208	109.90105	217.50801	0.00000	0.00000	0.00000	1707.95740	61.12843	231.99301	0.00000	0.00000	0.00000	1769.04236	32.01462	128.09485
1026	4.10000	1925.58765	1045.37744	270.77954	0.00000	0.00000	0.00000	0.00000	0.00000	0.00000	1740.79663	575.39062	342.22409	0.00000	0.00000	0.00000	0.00000	0.00000	0.00000	1711.03198	510.91690	342.47397	0.00000	0.00000	0.00000	1875.41406	424.24911	331.70642	0.00000	0.00000	0.00000	1831.96484	386.13870	351.68140	0.00000	0.00000	0.00000	1987.98706	242.54404	321.95718	0.00000	0.00000	0.00000	2057.40039	259.79559	276.38977	1945.59412	105.14857	361.09048	1906.17322	92.51971	314.64975	0.00000	0.00000	0.00000	1916.77136	1044.20984	157.59807	0.00000	0.00000	0.00000	1881.36035	619.95624	90.45021	1883.30017	558.44678	104.43797	0.00000	0.00000	0.00000	0.00000	0.00000	0.00000	0.00000	0.00000	0.00000	1842.67188	508.35800	217.37222	0.00000	0.00000	0.00000	0.00000	0.00000	0.00000	1882.62256	244.66711	104.93303	1883.21838	286.70007	99.14899	0.00000	0.00000	0.00000	1830.93823	110.09749	217.73201	0.00000	0.00000	0.00000	1707.85522	61.06676	231.99428	0.00000	0.00000	0.00000	1768.62732	32.01828	128.19916
1027	4.10400	1920.52576	1045.79077	271.11801	0.00000	0.00000	0.00000	0.00000	0.00000	0.00000	1732.40881	576.83215	342.19870	0.00000	0.00000	0.00000	0.00000	0.00000	0.00000	1701.79822	512.59283	341.92868	0.00000	0.00000	0.00000	1864.95325	423.43048	331.53568	0.00000	0.00000	0.00000	1821.94177	387.09317	352.09027	0.00000	0.00000	0.00000	1974.57434	240.03128	321.99408	1940.16406	225.53889	249.27370	2044.55493	255.32397	276.43546	1930.11719	105.17779	362.47327	0.00000	0.00000	0.00000	0.00000	0.00000	0.00000	1912.12524	1044.39343	157.96098	0.00000	0.00000	0.00000	1878.46240	620.37567	90.81057	1880.69360	558.94635	104.83201	0.00000	0.00000	0.00000	0.00000	0.00000	0.00000	0.00000	0.00000	0.00000	1838.75244	507.44278	216.84846	0.00000	0.00000	0.00000	0.00000	0.00000	0.00000	1881.39893	244.90520	105.19602	1881.60034	286.87283	99.42776	0.00000	0.00000	0.00000	1827.91272	109.88929	217.56606	0.00000	0.00000	0.00000	1707.70947	60.91423	231.97652	0.00000	0.00000	0.00000	1768.19861	32.04881	128.28935
1028	4.10800	1915.40137	1046.14465	271.51318	0.00000	0.00000	0.00000	0.00000	0.00000	0.00000	1723.84619	578.08258	342.15308	0.00000	0.00000	0.00000	0.00000	0.00000	0.00000	1692.74573	514.25000	341.36627	0.00000	0.00000	0.00000	1854.22693	422.35272	331.32285	0.00000	0.00000	0.00000	1809.65674	385.82986	351.03400	0.00000	0.00000	0.00000	1961.01685	237.24013	322.01538	0.00000	0.00000	0.00000	2031.43823	250.62202	276.49750	1913.30469	103.85349	362.97327	1872.11206	91.37601	315.53284	0.00000	0.00000	0.00000	1907.53748	1044.56812	158.34029	0.00000	0.00000	0.00000	1875.38916	620.66223	91.07043	1878.03516	559.34088	105.22641	0.00000	0.00000	0.00000	0.00000	0.00000	0.00000	0.00000	0.00000	0.00000	1837.29736	508.80496	217.88904	0.00000	0.00000	0.00000	0.00000	0.00000	0.00000	1880.17529	245.13693	105.45917	1880.08447	287.08102	99.69587	0.00000	0.00000	0.00000	0.00000	0.00000	0.00000	0.00000	0.00000	0.00000	1707.55811	60.81104	231.98439	0.00000	0.00000	0.00000	1767.79333	32.01552	128.40358
1029	4.11200	1910.28735	1046.47681	271.92548	0.00000	0.00000	0.00000	0.00000	0.00000	0.00000	1715.59827	579.48816	342.10617	0.00000	0.00000	0.00000	0.00000	0.00000	0.00000	1683.44263	515.69745	340.82169	0.00000	0.00000	0.00000	1843.94983	421.46762	331.19156	0.00000	0.00000	0.00000	1798.65515	385.69046	350.77429	0.00000	0.00000	0.00000	1947.31836	234.28587	322.00781	0.00000	0.00000	0.00000	2018.38513	245.98466	276.58707	1896.32678	102.41376	363.41293	0.00000	0.00000	0.00000	0.00000	0.00000	0.00000	1902.91870	1044.71912	158.76137	0.00000	0.00000	0.00000	1872.52100	621.16962	91.44857	1875.44385	559.74847	105.57383	0.00000	0.00000	0.00000	0.00000	0.00000	0.00000	0.00000	0.00000	0.00000	1833.54553	508.02222	217.49800	0.00000	0.00000	0.00000	1835.85925	301.33929	95.49282	1878.96265	245.37431	105.70775	1878.61255	287.37231	100.00192	0.00000	0.00000	0.00000	0.00000	0.00000	0.00000	0.00000	0.00000	0.00000	1707.48950	60.73572	231.96854	0.00000	0.00000	0.00000	1767.37317	32.01508	128.51463
1030	4.11600	1905.18396	1046.79712	272.35275	0.00000	0.00000	0.00000	0.00000	0.00000	0.00000	1707.24414	580.73871	342.08398	1665.52991	663.49591	362.60281	1650.77551	606.41052	356.16519	1674.47913	517.26233	340.29300	1650.98108	504.74664	232.07074	1833.49353	420.31729	331.10233	0.00000	0.00000	0.00000	1787.62817	385.36267	350.49622	0.00000	0.00000	0.00000	1933.58093	231.28152	322.04614	0.00000	0.00000	0.00000	2005.01379	241.03546	276.65747	1879.37500	100.98896	363.88483	1837.84729	90.28656	316.19348	0.00000	0.00000	0.00000	1898.39246	1044.83130	159.18839	0.00000	0.00000	0.00000	1869.64648	621.53668	91.83219	1872.80078	560.07416	105.93322	0.00000	0.00000	0.00000	0.00000	0.00000	0.00000	0.00000	0.00000	0.00000	1830.90454	508.15134	217.77715	0.00000	0.00000	0.00000	0.00000	0.00000	0.00000	1877.71851	245.60793	105.96732	1877.12378	287.61609	100.25114	0.00000	0.00000	0.00000	0.00000	0.00000	0.00000	0.00000	0.00000	0.00000	1707.49146	60.65681	231.98221	0.00000	0.00000	0.00000	1766.94446	32.01389	128.62016
